Coordinates
version=1
nRows=29
nColumns=24
inDegrees=yes

Units are S.I. units (second, meters, Newtons, ...)
Angles are in degrees.

endheader
time	pelvis_tilt	pelvis_list	pelvis_rotation	pelvis_tx	pelvis_ty	pelvis_tz	hip_flexion_r	hip_adduction_r	hip_rotation_r	knee_angle_r	ankle_angle_r	subtalar_angle_r	mtp_angle_r	hip_flexion_l	hip_adduction_l	hip_rotation_l	knee_angle_l	ankle_angle_l	subtalar_angle_l	mtp_angle_l	lumbar_extension	lumbar_bending	lumbar_rotation
      0.68366667	     -6.72845656	      1.72527643	      2.65548585	     -0.36715090	      1.06170834	      0.29599490	     17.49920702	      0.88940059	     -0.89727302	    -20.98345711	      8.28808936	     -6.37713207	      8.32974635	     24.82662287	     -2.11939822	     -3.90489480	    -70.92022077	      8.85728988	      5.93688956	      4.86737518	     -8.97027022	      2.27768970	      2.27740290
      0.68783333	     -6.70487327	      1.82146540	      2.49061213	     -0.36200788	      1.06254189	      0.29643925	     17.01779734	      0.84870480	     -0.77873384	    -20.64501286	      8.36949991	     -6.26843637	      8.33010992	     25.28629014	     -2.07532533	     -4.13860856	    -70.41587546	      9.13932808	      6.28182783	      4.90220784	     -9.03366580	      2.13214747	      2.45790027
      0.69200000	     -6.70609259	      1.90853615	      2.32693381	     -0.35686696	      1.06327546	      0.29686689	     16.56477471	      0.81330639	     -0.66790421	    -20.30768346	      8.46960087	     -6.17656375	      8.32922384	     25.76406048	     -2.03789703	     -4.36378023	    -69.87430876	      9.40339965	      6.60991853	      4.95530445	     -9.06214197	      1.98404290	      2.75229787
      0.69616667	     -6.69759594	      2.01111018	      2.13716431	     -0.35172209	      1.06401195	      0.29733581	     16.10686495	      0.76561615	     -0.52977356	    -19.97622169	      8.51947483	     -6.06091452	      8.32988161	     26.20792630	     -2.00264061	     -4.63460390	    -69.27566886	      9.64345988	      6.87370483	      4.98581114	     -9.09730314	      1.82948969	      2.86132158
      0.70033333	     -6.66642058	      2.09656442	      1.96544407	     -0.34658363	      1.06474616	      0.29776875	     15.61591433	      0.72994846	     -0.41213080	    -19.62826208	      8.61156578	     -5.97084845	      8.32910335	     26.62047985	     -1.97842842	     -4.87461193	    -68.64012836	      9.88708196	      7.19174975	      5.04517483	     -9.16571298	      1.68369247	      3.16018513
      0.70450000	     -6.68045746	      2.20225469	      1.77053283	     -0.34145392	      1.06535928	      0.29823565	     15.18822536	      0.67302381	     -0.27274531	    -19.30360722	      8.67281542	     -5.85691916	      8.33052276	     27.06321104	     -1.94597523	     -5.15528213	    -67.95614805	     10.08895825	      7.43557871	      5.07240989	     -9.17271932	      1.52471175	      3.24860754
      0.70866667	     -6.67669521	      2.28385222	      1.59275854	     -0.33632732	      1.06594309	      0.29866287	     14.73720795	      0.63505654	     -0.15833602	    -18.97359079	      8.77858303	     -5.75911261	      8.33149740	     27.48041473	     -1.93304206	     -5.40406911	    -67.24244695	     10.30528727	      7.74337487	      5.12632847	     -9.20185535	      1.38481333	      3.53983268
      0.71283333	     -6.67690553	      2.37462561	      1.40426619	     -0.33120740	      1.06649120	      0.29910447	     14.29442488	      0.58676004	     -0.03295296	    -18.64731732	      8.86053762	     -5.65334945	      8.33255644	     27.88425779	     -1.91589638	     -5.66892044	    -66.48013348	     10.48339716	      7.98814425	      5.16946782	     -9.22350948	      1.24195140	      3.71187126
      0.71700000	     -6.68436587	      2.45784719	      1.21475043	     -0.32610096	      1.06698529	      0.29953084	     13.86305404	      0.54256992	      0.09166287	    -18.32459523	      8.92346387	     -5.54168626	      8.33416812	     28.28397110	     -1.90630992	     -5.92775663	    -65.67985432	     10.63882030	      8.20637786	      5.19849450	     -9.24037882	      1.12544929	      3.83761494
      0.72116667	     -6.68050305	      2.52981638	      1.03937926	     -0.32099080	      1.06745271	      0.29993843	     13.41135826	      0.50490225	      0.19625499	    -17.98718040	      9.02445753	     -5.43803898	      8.33616431	     28.66195929	     -1.90637919	     -6.17184008	    -64.84851184	     10.78699536	      8.43696931	      5.24085733	     -9.26939833	      0.98343916	      4.06947131
      0.72533333	     -6.69569669	      2.61819050	      0.85408376	     -0.31589120	      1.06785490	      0.30033564	     12.99300119	      0.44673664	      0.30999674	    -17.67296907	      9.08934983	     -5.31945208	      8.33851755	     29.03948802	     -1.88644565	     -6.42026507	    -63.96320599	     10.89222605	      8.60461186	      5.26389588	     -9.27727048	      0.86147931	      4.17303399
      0.72950000	     -6.69006569	      2.68182928	      0.68531273	     -0.31079728	      1.06823231	      0.30071410	     12.54445234	      0.40988959	      0.39635011	    -17.34427766	      9.20461059	     -5.20028920	      8.34166256	     29.38926566	     -1.88977431	     -6.64648761	    -63.05709913	     11.00159669	      8.78986564	      5.30146098	     -9.30836451	      0.73241729	      4.39728529
      0.73366667	     -6.71953989	      2.74754716	      0.51306311	     -0.30571095	      1.06850019	      0.30107180	     12.14243278	      0.36744963	      0.49306464	    -17.03175833	      9.27309376	     -5.07850827	      8.34432453	     29.76162121	     -1.88612993	     -6.86442106	    -62.11102033	     11.07423191	      8.92227181	      5.32132655	     -9.30043648	      0.63844877	      4.49384595
      0.73783333	     -6.73071414	      2.80646250	      0.35092139	     -0.30063180	      1.06876366	      0.30140087	     11.71761205	      0.32670393	      0.57157346	    -16.71365276	      9.36794362	     -4.95754472	      8.34781752	     30.10035243	     -1.88340856	     -7.06615816	    -61.12750733	     11.13244738	      9.04333836	      5.34152966	     -9.31333632	      0.53972626	      4.62963853
      0.74200000	     -6.75607438	      2.85337507	      0.19622692	     -0.29555537	      1.06894357	      0.30171358	     11.30915439	      0.29533457	      0.64139359	    -16.39906627	      9.46562151	     -4.83167881	      8.35192740	     30.44426036	     -1.88799829	     -7.24823274	    -60.11651994	     11.17169464	      9.13460324	      5.36034016	     -9.31032672	      0.45139076	      4.76488062
      0.74616667	     -6.76055183	      2.89251835	      0.05218289	     -0.29049213	      1.06911686	      0.30199046	     10.87663850	      0.26632629	      0.69000392	    -16.08089415	      9.58966473	     -4.69097755	      8.35808920	     30.75267921	     -1.88969793	     -7.40575878	    -59.07163505	     11.19665148	      9.18447857	      5.38967142	     -9.33620075	      0.36263495	      4.95187044
      0.75033333	     -6.80776671	      2.91513073	     -0.08042790	     -0.28542343	      1.06915384	      0.30224047	     10.48520513	      0.25320880	      0.74468016	    -15.75320416	      9.66748489	     -4.57000634	      8.36197306	     31.09982105	     -1.90343305	     -7.54379786	    -58.00745470	     11.20067016	      9.22231124	      5.39777886	     -9.30685774	      0.31513483	      4.99905591
      0.75450000	     -6.82304070	      2.96086286	     -0.22710431	     -0.28037880	      1.06922896	      0.30249045	     10.07910105	      0.21150569	      0.79255766	    -15.46568755	      9.77643162	     -4.43961860	      8.36778464	     31.38176164	     -1.88976029	     -7.68116225	    -56.87721252	     11.17499861	      9.21938621	      5.41021920	     -9.32057040	      0.24430818	      5.10637927
      0.75866667	     -6.86927964	      2.97224920	     -0.35226351	     -0.27533529	      1.06916380	      0.30269173	      9.69716740	      0.20262690	      0.82657909	    -15.16151250	      9.88684442	     -4.30263446	      8.37391269	     31.69844111	     -1.89985428	     -7.77892778	    -55.74555202	     11.14534377	      9.18863255	      5.42117114	     -9.29771365	      0.20809677	      5.20408791
      0.76283333	     -6.90259911	      2.98769442	     -0.47399369	     -0.27029846	      1.06910110	      0.30287517	      9.30281891	      0.18611780	      0.85258452	    -14.85987867	      9.99877629	     -4.16187123	      8.38062939	     31.98027418	     -1.89706981	     -7.85882519	    -54.56905358	     11.09206876	      9.11899971	      5.43069991	     -9.29147463	      0.16871046	      5.28735077
      0.76700000	     -6.94598105	      2.98539802	     -0.58648633	     -0.26527757	      1.06893764	      0.30302797	      8.92116719	      0.18585498	      0.86904833	    -14.56358959	     10.12249385	     -4.01821532	      8.38793432	     32.26651451	     -1.90501085	     -7.91197517	    -53.37834584	     11.03182003	      9.02160467	      5.44055429	     -9.27860229	      0.15548528	      5.36685154
      0.77116667	     -6.98592731	      2.97027770	     -0.69284388	     -0.26025799	      1.06875864	      0.30315148	      8.53205320	      0.19694118	      0.88601359	    -14.26042737	     10.23212453	     -3.88066434	      8.39447738	     32.53264701	     -1.91609571	     -7.93719567	    -52.15339037	     10.95663229	      8.90206596	      5.44822505	     -9.26890742	      0.15693332	      5.42854593
      0.77533333	     -7.04158418	      2.95622270	     -0.79410597	     -0.25525112	      1.06848428	      0.30325806	      8.16572995	      0.20489193	      0.89748196	    -13.97143301	     10.35875522	     -3.74337905	      8.40149398	     32.80204439	     -1.91934978	     -7.94276243	    -50.90107070	     10.86821043	      8.74679278	      5.45632586	     -9.24323622	      0.15854526	      5.48030292
      0.77950000	     -7.08578740	      2.93203932	     -0.88966853	     -0.25024771	      1.06820316	      0.30333949	      7.78330809	      0.22153403	      0.90342843	    -13.67407979	     10.47633166	     -3.60473807	      8.40806079	     33.04310813	     -1.92349494	     -7.92151916	    -49.61753768	     10.76610600	      8.56474513	      5.46472647	     -9.23815971	      0.17400831	      5.52465997
      0.78366667	     -7.14756984	      2.88611353	     -0.97663830	     -0.24526167	      1.06781586	      0.30339181	      7.42363965	      0.26030635	      0.90817521	    -13.38759809	     10.60170370	     -3.47205424	      8.41415901	     33.29525628	     -1.94235836	     -7.86704785	    -48.31973001	     10.66867265	      8.37130614	      5.47470080	     -9.20847760	      0.22137081	      5.56030122
      0.78783333	     -7.21422992	      2.84689612	     -1.05969184	     -0.24027321	      1.06737821	      0.30343083	      7.06914781	      0.29096134	      0.91246444	    -13.10307908	     10.72846294	     -3.34259104	      8.41953876	     33.53464973	     -1.94721152	     -7.79370154	    -46.98898993	     10.55748865	      8.15611834	      5.48494661	     -9.17832521	      0.25751769	      5.58160963
      0.79200000	     -7.29079436	      2.79349759	     -1.13755847	     -0.23528664	      1.06687728	      0.30344119	      6.72760340	      0.33498737	      0.91525567	    -12.82600690	     10.85902902	     -3.21585746	      8.42419372	     33.76984045	     -1.95836856	     -7.68868868	    -45.63384971	     10.44686069	      7.92316959	      5.49748244	     -9.13681534	      0.31915596	      5.59672056
      0.79616667	     -7.36099667	      2.72677377	     -1.20755330	     -0.23030899	      1.06633452	      0.30343319	      6.37847750	      0.39288222	      0.91309172	    -12.55081727	     10.98946704	     -3.09622468	      8.42746807	     33.98647377	     -1.97514224	     -7.55214599	    -44.25796895	     10.33544750	      7.67716628	      5.51345690	     -9.10382619	      0.39346986	      5.60071772
      0.80033333	     -7.43321561	      2.66070711	     -1.27359181	     -0.22532115	      1.06576378	      0.30340104	      6.02801484	      0.44849692	      0.91796527	    -12.26990378	     11.10973589	     -2.98868678	      8.42896620	     34.18462669	     -1.98441186	     -7.39594111	    -42.84771238	     10.22137264	      7.43370199	      5.53000000	     -9.07817356	      0.46804540	      5.59554983
